<svg id="Слой_2" data-name="Слой 2" xmlns="http://www.w3.org/2000/svg" xmlns:xlink="http://www.w3.org/1999/xlink" viewBox="0 0 286.26 241.3"><defs><style>.cls-1{font-size:36px;font-family:Mont-HeavyItalic, Mont;font-weight:800;font-style:italic;}.cls-2,.cls-6{fill:#515151;}.cls-2{font-family:Mont-RegularItalic, Mont;font-weight:400;}.cls-3{font-size:22px;fill:#ff8057;font-family:Mont-Regular, Mont;}.cls-4{letter-spacing:-0.02em;}.cls-5{letter-spacing:-0.01em;}.cls-7{fill:url(#Безымянный_градиент_9);}.cls-8{fill:#ff7627;}.cls-9{fill:#ffb903;}.cls-10{fill:#f21d27;}.cls-11{fill:#fff;}</style><linearGradient id="Безымянный_градиент_9" x1="171.87" y1="171.96" x2="351.54" y2="171.96" gradientUnits="userSpaceOnUse"><stop offset="0.17" stop-color="#ffdf25"/><stop offset="0.53" stop-color="#ff8423"/><stop offset="0.69" stop-color="#ff1b25"/></linearGradient></defs><g id="Слой_3" data-name="Слой 3"><text class="cls-1" transform="translate(65.26 207.81)">MAX<tspan class="cls-2" x="85.21" y="0">BUS</tspan></text><text class="cls-3" transform="translate(48.78 234.68)">г<tspan class="cls-4" x="9.66" y="0">р</tspan><tspan class="cls-5" x="24.53" y="0">у</tspan><tspan x="37.16" y="0">зоперевозки</tspan></text></g><path id="переднее" class="cls-6" d="M304,255.5A27,27,0,1,1,277,229,26.75,26.75,0,0,1,304,255.5ZM277,238a17.51,17.51,0,1,0,18,17.5A17.76,17.76,0,0,0,277,238Zm.5,7A10.5,10.5,0,1,0,288,255.5,10.5,10.5,0,0,0,277.5,245Z" transform="translate(-171.74 -123.99)"/><path id="Кузов" class="cls-7" d="M176,124H348.69c2-.14,2.92.76,2.85,2.63v90.53c0,2.18-1,3-2.81,2.73H193.62C189,219,188,212,193.5,209.5l73-1c3.68-3.25,3.61-6.58,0-10h-38c-5.5-1.5-6.5-8.5,0-11h18c2.15-1.85,2.83-4.62,0-8h-43c-4.5-.5-6.5-8.5,0-11h50c4.58-4.09,3.92-8.08,0-12h-35c-4.5-1.5-5.5-8.5,0-11h56c4.52-3.27,4.36-6.61,0-10l-98.5-.41C171,133,170,127,176,124Z" transform="translate(-171.74 -123.99)"/><path id="Бампер" class="cls-8" d="M262.27,227.79H234.34C225,231,224,246,234.34,248.49h12.84C251.22,238.38,256,230.7,262.27,227.79Z" transform="translate(-171.74 -123.99)"/><path id="точка" class="cls-9" d="M199,146h5.35c4.65,1,4.65,9,0,10.06H199C194,155,194,147,199,146Z" transform="translate(-171.74 -123.99)"/><path id="точка-2" data-name="точка" class="cls-9" d="M175.49,209.05h5.35c4.65,1,4.65,9,0,10.06h-5.35C170.49,218.05,170.49,210.05,175.49,209.05Z" transform="translate(-171.74 -123.99)"/><path id="заднее" class="cls-6" d="M433,256.5A27,27,0,1,1,406,230,26.75,26.75,0,0,1,433,256.5ZM406,239a17.51,17.51,0,1,0,18,17.5A17.76,17.76,0,0,0,406,239Zm.5,7A10.5,10.5,0,1,0,417,256.5,10.5,10.5,0,0,0,406.5,246Z" transform="translate(-171.74 -123.99)"/><path id="перед" class="cls-10" d="M455,228h-4.14c-.54,0-.88-.11-.86-.58v-2.87c0-.42.16-.59.55-.55H453c1,0,1-4,0-4h-2.16c-.53,0-.82-.18-.84-.64v-2.67c0-.48.12-.71.46-.69H452c1.83,0,1.83-4,0-4h-1.25c-.5-.06-.75-.32-.75-.77v-2.37c0-.67.17-1,.64-.89l3.36-.13c2,.16,2-16.84,0-16.84h-4.42c-.67,0-1.07-.34-1.05-1.3V173.19a2.75,2.75,0,0,0-1-2.38l-40.4-44.6a7.85,7.85,0,0,0-2.55-1.21H367c-2,0-4,3-3.94,6.26v93.25c.22,2.38-.93,3.37-3.16,3.28h-67c7.61,4.29,12.49,11.45,14.89,21.21H375c12-34,49-36,61.35-1H455C459,248,459,228,455,228Z" transform="translate(-171.74 -123.99)"/><path id="Окно" class="cls-11" d="M376,142c.36-1.91,1.29-3,3-3h19.29a4,4,0,0,1,2.87,1.13l5,5.07c.8.8.8.8.8,1.9V170c0,.57-.29.85-1,.82H377.82c-1-.11-1.59-.81-1.82-2Z" transform="translate(-171.74 -123.99)"/><path id="форточка" class="cls-11" d="M425,165a25.22,25.22,0,0,1,2.46,3.28c1.12,1.55.14,2.56-2.46,2.53H410.45s-.56-.19-.56-.52c0-2.76-.08-15.78,0-19.94-.07-1.24.15-1.35.92-.41C414,153.27,425,165,425,165Z" transform="translate(-171.74 -123.99)"/><path id="ручка" class="cls-11" d="M377,181h10.05c.95,1,.95,3,0,3.69H377C376,184,376,182,377,181Z" transform="translate(-171.74 -123.99)"/></svg>